MoBL_ARMS_module2_4_allmuscles_wrist_states		
version=1		
nRows=303		
nColumns=3		
inDegrees=yes		
		
# SIMM Motion File Header:		
name MoBL_ARMS_module2_4_allmuscles_wrist_states		
datacolumns 3		
datarows 303		
otherdata 1		
range 0 0.520382285		
endheader		
time	deviation	flexion
0	0.185703019	-0.391180652
0.000756674	0.185692516	-0.391115105
0.001513349	0.185662999	-0.390920317
0.002431706	0.185604279	-0.390519422
0.003350062	0.185519883	-0.389956337
0.004996757	0.185305718	-0.388608402
0.006643451	0.185024293	-0.386926072
0.008290145	0.184698478	-0.385019587
0.010053649	0.184326433	-0.382849791
0.011817153	0.183952897	-0.380666378
0.013355963	0.183646925	-0.37883308
0.014894773	0.183384065	-0.377131112
0.016912603	0.183135931	-0.375191243
0.018930432	0.183015464	-0.373684094
0.020948262	0.183027058	-0.372694511
0.023616384	0.183244735	-0.372262333
0.027248279	0.183920006	-0.373296992
0.031121953	0.185154269	-0.376253061
0.034995628	0.186947438	-0.380695155
0.036955382	0.188063123	-0.383352609
0.038854091	0.189266906	-0.386114416
0.040511165	0.190406513	-0.388636857
0.042168239	0.191618682	-0.391234076
0.043825313	0.192892381	-0.39388113
0.045482387	0.194215855	-0.396554841
0.04713946	0.195577342	-0.399233851
0.048796534	0.196965996	-0.40189987
0.050809828	0.198676269	-0.40510042
0.052373668	0.200013926	-0.407545424
0.053937508	0.201353834	-0.409947522
0.055859473	0.202997532	-0.412835541
0.057537183	0.204425207	-0.415296757
0.059214892	0.205843174	-0.417702803
0.060892601	0.207249488	-0.420055879
0.062570311	0.208643045	-0.422359305
0.06424802	0.21002346	-0.424617188
0.065925729	0.211390989	-0.426833828
0.067603439	0.212746425	-0.429013455
0.069281148	0.214090986	-0.431160215
0.070958858	0.215426223	-0.433277983
0.072636567	0.216753892	-0.435370333
0.074314276	0.218075841	-0.437440541
0.075991986	0.219393889	-0.439491607
0.077669695	0.220709736	-0.441526255
0.079347405	0.222024908	-0.443546923
0.081025114	0.223340678	-0.445555713
0.08304576	0.224927605	-0.447961735
0.084528422	0.226094244	-0.449718879
0.086011084	0.227263182	-0.45146916
0.087993115	0.228829818	-0.453797533
0.089975146	0.230401341	-0.456110816
0.091401357	0.231535331	-0.457764139
0.092827568	0.232672064	-0.459406243
0.094874903	0.23430881	-0.461740409
0.096695819	0.235769642	-0.463789888
0.098516736	0.237235542	-0.465810792
0.100092294	0.238508493	-0.467533612
0.101667851	0.239786451	-0.46922982
0.103243409	0.241070403	-0.470896095
0.105324848	0.242777981	-0.473042477
0.106946033	0.244119175	-0.474659921
0.108567217	0.24547244	-0.476216631
0.110188401	0.246839783	-0.477698108
0.112154565	0.248519305	-0.479370845
0.113781231	0.249927534	-0.480632486
0.115407896	0.251352746	-0.481766881
0.117034562	0.252793903	-0.482760669
0.118661227	0.25424899	-0.483602976
0.120721912	0.256107868	-0.484439866
0.122225406	0.257471418	-0.484882079
0.1237289	0.258837877	-0.485179045
0.12569866	0.260627789	-0.485345645
0.127668421	0.262412115	-0.485258495
0.129089617	0.263693379	-0.485037923
0.130510814	0.264967918	-0.484685459
0.132559337	0.266791193	-0.483946242
0.134389306	0.268404694	-0.483056348
0.136219275	0.27000304	-0.481951601
0.13778224	0.271355978	-0.480839594
0.139345204	0.272697609	-0.479574327
0.141246724	0.274314636	-0.477831728
0.142940594	0.275741093	-0.476095391
0.144634464	0.277154453	-0.474189849
0.146328334	0.278554802	-0.472119365
0.148022205	0.279942222	-0.469888261
0.149716075	0.281316743	-0.467500565
0.151409945	0.282678311	-0.464959695
0.153103816	0.284026815	-0.462268386
0.154797686	0.285362174	-0.459428801
0.156491556	0.286684423	-0.456442729
0.158185426	0.287993804	-0.45331196
0.159879297	0.289290844	-0.450038808
0.161573167	0.290576346	-0.446626737
0.163267037	0.291850922	-0.443081614
0.164690622	0.292911418	-0.440006635
0.166114207	0.293954363	-0.436851343
0.168329411	0.295524263	-0.431788153
0.170084101	0.29671377	-0.427645134
0.171838791	0.297854255	-0.423382949
0.173593481	0.298948304	-0.418998027
0.175348171	0.300000234	-0.414485041
0.176639117	0.300750103	-0.411079251
0.178325714	0.301702255	-0.406515591
0.180697101	0.302994605	-0.399871105
0.182296887	0.30383941	-0.395233259
0.183896674	0.304664231	-0.390467898
0.185496461	0.305469751	-0.3855742
0.187525598	0.306464127	-0.379184555
0.189143736	0.307235298	-0.373947089
0.190761875	0.307986725	-0.368587826
0.192380013	0.308717543	-0.363110052
0.194351493	0.309578245	-0.356280857
0.195977541	0.310261827	-0.350524463
0.197603589	0.31092011	-0.344660209
0.199229637	0.311551892	-0.338691547
0.200855686	0.312156199	-0.332621642
0.202919335	0.31288238	-0.324777111
0.204421625	0.313381716	-0.318970285
0.205923914	0.313855949	-0.313084833
0.2078958	0.314439816	-0.30524379
0.209867687	0.314979289	-0.29727541
0.211286854	0.315339666	-0.291464336
0.212706022	0.315676334	-0.285591451
0.21476025	0.316121016	-0.276984961
0.216593083	0.316476648	-0.269207731
0.218425915	0.316797753	-0.261349
0.2199832	0.31704626	-0.254616194
0.221540486	0.31727385	-0.247838894
0.22345043	0.317525112	-0.239473544
0.22514479	0.317722071	-0.23200877
0.226839149	0.317893614	-0.224506801
0.228533509	0.31803859	-0.216970004
0.230227869	0.318155859	-0.209399897
0.231922229	0.318244269	-0.201797557
0.233616588	0.318302679	-0.194163784
0.235310948	0.318330126	-0.186499176
0.237005308	0.318325874	-0.178804164
0.238699668	0.318289412	-0.171079005
0.240394027	0.318220418	-0.16332375
0.242088387	0.318118721	-0.155538243
0.243782747	0.317985656	-0.147721492
0.245477106	0.317823432	-0.139872209
0.247171466	0.317631119	-0.131991286
0.248865826	0.317408017	-0.12407989
0.250560186	0.317153662	-0.116139305
0.252254545	0.316867807	-0.108170829
0.253948905	0.316550391	-0.100175785
0.255643265	0.316201517	-0.092155617
0.257337625	0.315821422	-0.084111946
0.259031984	0.31541043	-0.076046605
0.260726344	0.31496891	-0.067961653
0.262420704	0.314497251	-0.059859366
0.264115063	0.313995876	-0.051742172
0.265809423	0.313465293	-0.043612598
0.267503783	0.312906087	-0.03547322
0.269198143	0.312318885	-0.027326581
0.270892502	0.311704501	-0.019175148
0.272586862	0.311063923	-0.011021307
0.274281222	0.310398173	-0.002867444
0.275975582	0.309708146	0.005283958
0.277669941	0.308994557	0.013430292
0.279364301	0.308257994	0.021568863
0.281058661	0.307498982	0.02969695
0.282753021	0.306718013	0.037811863
0.28444738	0.305915572	0.04591099
0.28614174	0.305092132	0.053991847
0.2878361	0.304248173	0.06205213
0.289530459	0.303384089	0.070089611
0.290731547	0.302759495	0.075772183
0.291932634	0.302125333	0.081441475
0.293441878	0.301314893	0.088545292
0.298210333	0.298651081	0.110828168
0.300503974	0.297311725	0.121450702
0.301882192	0.296487924	0.127801791
0.30326041	0.295649261	0.134128253
0.305490488	0.294258912	0.144311701
0.307355647	0.293062064	0.152777332
0.309023977	0.291963227	0.160309561
0.310692306	0.290836077	0.167803991
0.312360635	0.289679589	0.175260837
0.314028965	0.288493294	0.182680509
0.315697294	0.287277039	0.190063578
0.317365623	0.286030817	0.197410743
0.319033953	0.284754682	0.204722767
0.320702282	0.283448743	0.212000438
0.322370611	0.282113139	0.219244516
0.324402309	0.280446915	0.228021992
0.325884493	0.27920415	0.234395205
0.327366677	0.277938661	0.240743271
0.329353532	0.27620703	0.249213712
0.331340387	0.274435447	0.257639601
0.332758648	0.273146601	0.263626926
0.334176908	0.271837608	0.269591414
0.336238149	0.269899474	0.278218854
0.33806615	0.268145654	0.285828678
0.339894151	0.266359471	0.293398851
0.341460571	0.26480364	0.299853646
0.34302699	0.263225024	0.306278329
0.344923453	0.261284056	0.314015719
0.346616948	0.259524013	0.32088639
0.348310443	0.257739178	0.327719852
0.350003938	0.255929481	0.334515241
0.351697433	0.254093231	0.341271095
0.353390928	0.252226739	0.347985103
0.355084422	0.250325544	0.354654565
0.356777917	0.248385471	0.361276832
0.358471412	0.246403545	0.367849761
0.360164907	0.244378769	0.374372086
0.361858402	0.242311942	0.380843424
0.362302094	0.241763486	0.382530418
0.362745787	0.241211944	0.384213799
0.364964251	0.238407201	0.392575683
0.366842128	0.235967031	0.399579319
0.368491313	0.233766733	0.405669911
0.370140499	0.231505534	0.411700681
0.371789685	0.229177044	0.417668475
0.373438871	0.226777555	0.423571382
0.375088056	0.224308299	0.429409794
0.377081201	0.221240001	0.43638413
0.378623948	0.21881147	0.441726099
0.380166694	0.21634404	0.447023823
0.382063648	0.213264813	0.453483726
0.383960602	0.21014184	0.45989111
0.385470407	0.207627286	0.464958201
0.386980213	0.205087756	0.470000386
0.388888857	0.201842908	0.476345005
0.390797502	0.198563803	0.482664766
0.392324277	0.195920987	0.487708493
0.393851052	0.193264836	0.492747016
0.395742768	0.189959557	0.498989122
0.397634485	0.186640822	0.505237053
0.39917194	0.183932979	0.510323314
0.400709395	0.181213121	0.515419832
0.402246851	0.178478081	0.520528673
0.404444562	0.174536809	0.527856355
0.405956731	0.171801588	0.532917313
0.407468901	0.169047516	0.537995177
0.409475273	0.165365634	0.54476016
0.411223252	0.162133185	0.550680474
0.412971232	0.15887755	0.556625768
0.414719211	0.155597106	0.56259542
0.416467191	0.152289074	0.568587879
0.41821517	0.148949955	0.574600662
0.419786062	0.145919703	0.580018818
0.421356955	0.142859473	0.585447479
0.422927847	0.139767993	0.590883015
0.424981619	0.135678323	0.59799323
0.426555743	0.132507354	0.603440718
0.428129868	0.129305874	0.608881916
0.429703992	0.126075715	0.614312911
0.431825838	0.121680775	0.621610761
0.433344566	0.118510032	0.626813541
0.434863294	0.115321737	0.631995338
0.436835299	0.111160661	0.638687122
0.438594397	0.107433122	0.644616483
0.440353496	0.103694649	0.650503306
0.442112594	0.099948728	0.656343054
0.443871692	0.096198379	0.662131368
0.445425108	0.092884931	0.667196791
0.446978523	0.089571595	0.672216166
0.448883992	0.085509492	0.678306653
0.450586333	0.081883968	0.683683118
0.452288673	0.078263066	0.688996383
0.453991013	0.074648225	0.694245102
0.455693353	0.071041569	0.699428464
0.457395694	0.067445796	0.704546127
0.459098034	0.063863935	0.709598175
0.460800374	0.060299119	0.714585088
0.462502715	0.056754148	0.719507749
0.464205055	0.053230885	0.724367557
0.465907395	0.049730198	0.729166523
0.467609736	0.046251849	0.733907314
0.469312076	0.042795254	0.738593084
0.471014416	0.039360082	0.743227245
0.472716756	0.035946454	0.747813266
0.474419097	0.032554937	0.752354498
0.476121437	0.029186502	0.756854012
0.477823777	0.025842233	0.761314618
0.479526118	0.022522544	0.765739037
0.481228458	0.019226905	0.770130051
0.482930798	0.01595404	0.77449052
0.484633139	0.012702514	0.778823232
0.486335479	0.00947121	0.783130727
0.488037819	0.006259536	0.787415148
0.48974016	0.00306752	0.791678083
0.4914425	-0.000104249	0.795920463
0.49314484	-0.003254819	0.800142586
0.49484718	-0.006383154	0.804344261
0.496549521	-0.009488683	0.808524979
0.498251861	-0.012571276	0.81268397
0.499954201	-0.015631021	0.816820156
0.501656542	-0.018668046	0.820932104
0.503358882	-0.021682425	0.825018048
0.505061222	-0.024673817	0.829075919
0.506763563	-0.027641503	0.833103404
0.508465903	-0.030584737	0.837098056
0.510168243	-0.033502697	0.841057294
0.511870584	-0.036394368	0.844978407
0.513572924	-0.039258653	0.84885865
0.515275264	-0.042094574	0.852695295
0.516977604	-0.04490134	0.856485693
0.518679945	-0.047678298	0.860227317
0.520382285	-0.050424821	0.863917805
